<?xml version="1.0" standalone="no"?>
<!DOCTYPE svg PUBLIC "-//W3C//DTD SVG 20010904//EN"
 "http://www.w3.org/TR/2001/REC-SVG-20010904/DTD/svg10.dtd">
<svg version="1.0" xmlns="http://www.w3.org/2000/svg"
 width="2048.000000pt" height="2048.000000pt" viewBox="0 0 2048.000000 2048.000000"
 preserveAspectRatio="xMidYMid meet">
<metadata>
Created by potrace 1.11, written by Peter Selinger 2001-2013
</metadata>
<g transform="translate(0.000000,2048.000000) scale(0.100000,-0.100000)"
fill="#000000" stroke="none">
<path d="M9910 19459 c-821 -41 -1637 -179 -2351 -398 -1321 -406 -2468 -1062
-3534 -2020 -898 -808 -1714 -1937 -2208 -3058 -491 -1112 -739 -2192 -798
-3480 -39 -845 122 -2019 400 -2924 406 -1321 1062 -2468 2020 -3534 808 -898
1937 -1714 3058 -2208 1112 -491 2192 -739 3481 -798 844 -39 2018 122 2923
400 1321 406 2468 1062 3534 2020 898 808 1714 1937 2208 3058 491 1112 739
2192 798 3480 39 845 -122 2019 -400 2924 -293 953 -732 1845 -1295 2633 -59
82 -105 152 -104 156 4 10 305 226 578 415 219 151 330 233 502 372 53 43 167
123 253 178 168 107 205 137 205 166 0 45 -86 18 -444 -139 -153 -68 -278
-131 -380 -193 -140 -85 -251 -152 -531 -317 -60 -36 -168 -102 -238 -148 -70
-46 -132 -84 -136 -84 -5 0 -70 74 -145 164 -289 349 -577 653 -871 917 -775
696 -1598 1237 -2472 1622 -1101 486 -2178 735 -3448 797 -225 11 -365 11
-605 -1z"/>
</g>
</svg>
